<svg xmlns="http://www.w3.org/2000/svg" viewBox="0 0 200 40" width="200" height="46">
  <style>
    .logo-text { font-family: Arial, sans-serif; font-size: 24px; font-weight: bold; }
  </style>
  <g fill="currentColor">
    <polygon points="6.5 37.8 12 28.3 17.5 18.9 22.9 9.4 23.8 7.9 24.2 9.4 25.9 15.7 24 18.9 18.5 28.3 13.1 37.8 19.6 37.8 25.1 28.3 27.9 23.4 29.3 28.3 31.8 37.8 37.7 37.8 35.1 28.3 32.6 18.9 31.9 16.5 36 9.4 30.1 9.4 29.9 8.7 27.8 1 27.5 0 21.8 0 21.7 0.2 16.4 9.4 10.9 18.9 5.5 28.3 0 37.8 6.5 37.8"/>
  </g>
  <text x="40" y="38" class="logo-text">lgoTools</text>
</svg>