<?xml version="1.0" encoding="UTF-8" standalone="no"?>
<svg xmlns="http://www.w3.org/2000/svg" width="100%" viewBox="0 0 349.99999999999994 108.85710235135814" class="looka-1j8o68f"><defs id="SvgjsDefs2620"></defs><g id="SvgjsG2621" transform="matrix(5.690059852967013,0,0,5.690059852967013,-2.8145883116617934,-34.23139890333334)" fill="#d0d0d0"><path d="M2.861 15.8021 l1.885 0 l-0.93583 -7.6738 z M0.49465 20.026738 l1.6711 -13.596 l-0.33422 -0.40107 l3.5695 0 l1.7246 13.997 l-1.8583 0 l-0.25401 -2.1123 l-2.9545 -0.013369 l0.49465 0.3877 l-0.2139 1.738 l-1.8449 0 z M6.1764661497326205 6.016 l2.139 0 l1.2433 10.053 l1.2299 -10.053 l1.8449 0 l-1.7112 13.997 l-2.7406 0 l-1.6578 -13.583 l-0.013369 0 z M13.20855796791444 6.016 l3.0882 0 l1.2433 4.7193 l1.2567 -4.7193 l2.754 0 l-0.013369 13.997 l-1.8316 0 l0 -10.267 l-2.1658 8.1283 l0 0.013369 l0 -0.013369 l0 0.013369 l0 -0.013369 l-2.1524 -8.1283 l0 10.267 l-1.8449 0 l0 -13.596 z M23.355602673796795 13.0481 l0.54813 0.41444 l0 1.4171 l1.8182 0 l0 -1.8316 l-2.3663 0 z M23.623002673796794 11.2166 l2.3797 0 c0.73529 0 1.3102 0.57487 1.3102 1.3235 l0 2.861 c0 0.74866 -0.57487 1.3235 -1.3102 1.3235 l-2.0989 0 l0 1.4572 l3.4091 0 l0 0.52139 c0 0.73529 -0.57487 1.3102 -1.3102 1.3102 l-2.3797 0 c-0.74866 0 -1.3235 -0.57487 -1.3235 -1.3102 l0 -6.1631 c0 -0.74866 0.57487 -1.3235 1.3235 -1.3235 z M30.84227165775401 11.2032 l1.7112 0 l-1.6043 4.385 l1.6043 4.4118 l-1.6979 0 l-0.76203 -2.0722 l-0.74866 2.0722 l-1.6979 0 l1.6043 -4.4118 l-1.4572 -3.984 l-0.33422 -0.40107 l0.18717 0 l1.6979 0 l0.74866 2.0588 z M34.57222085561497 12.9947 l0.53476 0.41444 l0 4.746 l1.8316 0 l0 -5.1604 l-2.3663 0 z M38.55612085561497 12.4733 l0 6.1898 c0 0.73529 -0.61497 1.3369 -1.3235 1.3369 l-2.1257 0 l0 5.1471 l-1.6043 0 l0 -13.596 l-0.33422 -0.40107 l4.0642 0 c0.70856 0 1.3235 0.57487 1.3235 1.3235 z M40.96257700534759 20.040107 l-1.6176 0 l0 -13.596 l-0.33422 -0.40107 l1.9519 0 l0 13.997 z M42.820887700534755 13.0348 l0.54813 0.40107 l0 4.7193 l1.8182 0 l0 -5.1203 l-2.3663 0 z M46.79148770053475 12.5134 l0 6.1631 c0 0.70856 -0.61497 1.3235 -1.3235 1.3235 l-2.3797 0 c-0.74866 0 -1.3235 -0.61497 -1.3235 -1.3235 l0 -6.1631 c0 -0.74866 0.57487 -1.3235 1.3235 -1.3235 l2.3797 0 c0.74866 0 1.3235 0.61497 1.3235 1.3235 z M47.59357893048128 20.053476 l0 -8.3824 l-0.33422 -0.41444 l3.2086 0 c0.73529 0 1.3102 0.57487 1.3102 1.3235 l0 0.50802 l-3.1283 0 l0.54813 0.41444 l0 6.5508 l-1.6043 0 z M53.16843689839571 13.0481 l0.54813 0.41444 l0 1.4171 l1.8182 0 l0 -1.8316 l-2.3663 0 z M53.43583689839571 11.2166 l2.3797 0 c0.73529 0 1.3102 0.57487 1.3102 1.3235 l0 2.861 c0 0.74866 -0.57487 1.3235 -1.3102 1.3235 l-2.0989 0 l0 1.4572 l3.4091 0 l0 0.52139 c0 0.73529 -0.57487 1.3102 -1.3102 1.3102 l-2.3797 0 c-0.74866 0 -1.3235 -0.57487 -1.3235 -1.3102 l0 -6.1631 c0 -0.74866 0.57487 -1.3235 1.3235 -1.3235 z M57.820851657754005 20.053476 l0 -8.3824 l-0.33422 -0.41444 l3.2086 0 c0.73529 0 1.3102 0.57487 1.3102 1.3235 l0 0.50802 l-3.1283 0 l0.54813 0.41444 l0 6.5508 l-1.6043 0 z"></path></g></svg>